<svg id="Layer_1" data-name="Layer 1" xmlns="http://www.w3.org/2000/svg" width="1200" height="1200" viewBox="0 0 1200 1200"><defs><style>.cls-1{fill:#03b37e;}</style></defs><title>D-Starite</title><path class="cls-1" d="M487.44,507.88a63.29,63.29,0,0,1,22.37-11A60.94,60.94,0,0,1,529.64,495q10.18.64,16.45,4.27l-14.51-54.07c-34.21,18.08-58.85,51-64.72,89.79a67.83,67.83,0,0,1,4.27-8.85A65,65,0,0,1,487.44,507.88Z"/><path class="cls-1" d="M519.65,506c-8.24,2.23-14.3,8.24-18.13,18.11q-6.31,17,1.62,46.69,7.58,28.29,21.65,41.3c7.55,6.82,14.86,9.26,22,7.34,5.86-1.57,10.85-5.28,15-11.2a46.63,46.63,0,0,0,7.84-19l-20.08-75a36.37,36.37,0,0,0-14.25-8.13A28.48,28.48,0,0,0,519.65,506Z"/><path class="cls-1" d="M634.9,603.25l-26.68-99.58a15.12,15.12,0,0,0-5.62-8.36,14.59,14.59,0,0,0-9.76-2.81l-8.67.55-.67-2.46,48.9-13.12,7.81,29.14a60.33,60.33,0,0,1,11.23-26.73q8.61-11.28,19.32-14.16a24.32,24.32,0,0,1,9.41-.67A128.21,128.21,0,0,0,592,430.34a130.6,130.6,0,0,0-32.06,4l16.3,60.85,26,97.1a14.87,14.87,0,0,0,5.64,8.36,14.5,14.5,0,0,0,9.75,2.82l8.67-.55.67,2.46L578,618.49l-3.48-12.92c-2.9,6.68-8,12.94-15.26,18.8q-6,5.14-16.69,8a54.39,54.39,0,0,1-23.13,1,62.39,62.39,0,0,1-22.06-8.07,72,72,0,0,1-17-14.92C501.66,649,543.65,675.27,592,675.27A129.11,129.11,0,0,0,650,661.61a17.19,17.19,0,0,0-.54-3.9Z"/><path class="cls-1" d="M701.85,492.15a23.65,23.65,0,0,1-1,3.49,17.13,17.13,0,0,1-5.51,7.95,22,22,0,0,1-8.77,4.7,12,12,0,0,1-7,.12,17.52,17.52,0,0,0-.24-5.23,15.23,15.23,0,0,0-4.38-7.08,17.94,17.94,0,0,0-7.8-4.38,16.89,16.89,0,0,0-9.26-.47q-8.22,2.24-12.45,15.76a79.47,79.47,0,0,0-2.35,10.3l33.81,126.25c25.51-22.41,41.53-54.77,41.53-90.75A119.15,119.15,0,0,0,701.85,492.15Z"/><path d="M461.3,705.43h18.83c15.59,0,26.39,10.88,26.39,27.93S496,762.25,480.05,762.25H461.3Zm4.38,52.77H479.4c15,0,22.41-10.56,22.41-24.6,0-12.5-6.66-24.11-22.41-24.11H465.68Z"/><path d="M533.14,739.52v4H512.68v-4Z"/><path d="M543.13,747c1.7,7.55,6.73,12,16.07,12,10.39,0,14.37-5.2,14.37-11.37,0-6.41-2.84-10.39-15.35-13.47-12-3-17.2-6.9-17.2-15.1,0-7.47,5.43-14.45,17.61-14.45,12.5,0,17.78,7.63,18.51,14.53h-4.55c-1.3-6.09-5.27-10.47-14.2-10.47-8.2,0-12.67,3.81-12.67,10.14s3.74,8.69,14.21,11.29c16,4,18.35,10.39,18.35,17.21,0,8.36-6.09,15.58-19.24,15.58-14.21,0-19.4-8.28-20.46-15.91Z"/><path d="M580,721.67h7.55V709h4.06v12.67h9.66v3.81h-9.66v26.38c0,4.55,1,7.15,4.87,7.15a15.18,15.18,0,0,0,4.22-.49v3.57a14.21,14.21,0,0,1-5,.73c-5.2,0-8.12-2.6-8.12-9.09V725.48H580Z"/><path d="M634.12,754.54a46.64,46.64,0,0,0,.57,7.71h-3.9a27.38,27.38,0,0,1-.73-6.25c-1.38,3-4.95,7.23-13.31,7.23-9.42,0-13.47-6.09-13.47-12.18,0-8.93,6.89-13,19.07-13h7.71v-4.14c0-4.06-1.21-9.49-10.47-9.49-8.2,0-9.42,4.3-10.31,7.63h-4.06c.49-4.47,3.25-11.37,14.45-11.37,9.26,0,14.45,3.9,14.45,12.83Zm-4-13h-7.95c-9,0-14.61,2.36-14.61,9.34,0,5.11,3.65,8.6,9.33,8.6,11.61,0,13.23-7.71,13.23-16.48Z"/><path d="M644.27,732.71c0-6.82-.08-9.74-.08-11h4c.08,1.3.16,3.89.16,9.09a15.38,15.38,0,0,1,14.12-10.07v4.39c-8.44.56-14.12,6.41-14.12,16.07v21.1h-4.06Z"/><path d="M666.67,702.43h4.06v7.87h-4.06Zm0,19.24h4.06v40.58h-4.06Z"/><path d="M675.28,721.67h7.55V709h4v12.67h9.66v3.81h-9.66v26.38c0,4.55,1,7.15,4.87,7.15a15.25,15.25,0,0,0,4.23-.49v3.57a14.24,14.24,0,0,1-5,.73c-5.19,0-8.11-2.6-8.11-9.09V725.48h-7.55Z"/><path d="M702,742.45c.08,10.47,5.36,17,13.15,17,7.63,0,10.23-4.3,11.69-7.63H731c-1.7,5.36-6,11.45-16,11.45-12.34,0-17.13-10.64-17.13-21,0-11.6,5.77-21.59,17.62-21.59,12.5,0,16.48,10.8,16.48,18.43,0,1.14,0,2.27-.08,3.33Zm25.74-3.57c-.09-8-4.47-14.37-12.42-14.37-8.37,0-12.18,5.84-13.07,14.37Z"/></svg>